<?xml version="1.0" encoding="UTF-8" standalone="no"?>
<svg
   xmlns:ooo="http://xml.openoffice.org/svg/export"
   xmlns:dc="http://purl.org/dc/elements/1.1/"
   xmlns:cc="http://creativecommons.org/ns#"
   xmlns:rdf="http://www.w3.org/1999/02/22-rdf-syntax-ns#"
   xmlns:svg="http://www.w3.org/2000/svg"
   xmlns="http://www.w3.org/2000/svg"
   xmlns:sodipodi="http://sodipodi.sourceforge.net/DTD/sodipodi-0.dtd"
   xmlns:inkscape="http://www.inkscape.org/namespaces/inkscape"
   version="1.2"
   width="908.09003"
   height="700"
   viewBox="0 0 25628.319 19755.555"
   preserveAspectRatio="xMidYMid"
   clip-path="url(#presentation_clip_path)"
   xml:space="preserve"
   id="svg2"
   inkscape:version="0.48.4 r9939"
   sodipodi:docname="routing_algo.svg"
   style="fill-rule:evenodd;stroke-width:28.22200012;stroke-linejoin:round"><metadata
     id="metadata303"><rdf:RDF><cc:Work
         rdf:about=""><dc:format>image/svg+xml</dc:format><dc:type
           rdf:resource="http://purl.org/dc/dcmitype/StillImage" /></cc:Work></rdf:RDF></metadata><sodipodi:namedview
     pagecolor="#ffffff"
     bordercolor="#666666"
     borderopacity="1"
     objecttolerance="10"
     gridtolerance="10"
     guidetolerance="10"
     inkscape:pageopacity="0"
     inkscape:pageshadow="2"
     inkscape:window-width="752"
     inkscape:window-height="480"
     id="namedview301"
     showgrid="false"
     fit-margin-top="0"
     fit-margin-left="0"
     fit-margin-right="0"
     fit-margin-bottom="0"
     inkscape:zoom="0.31716402"
     inkscape:cx="455.81544"
     inkscape:cy="307.03198"
     inkscape:window-x="0"
     inkscape:window-y="27"
     inkscape:window-maximized="0"
     inkscape:current-layer="svg2" /><defs
     class="ClipPathGroup"
     id="defs4"><clipPath
       id="presentation_clip_path"
       clipPathUnits="userSpaceOnUse"><rect
         x="0"
         y="0"
         width="29700"
         height="21000"
         id="rect7" /></clipPath></defs><defs
     class="TextShapeIndex"
     id="defs9"><g
       ooo:slide="id1"
       ooo:id-list="id3 id4 id5 id6 id7 id8 id9 id10 id11 id12 id13 id14 id15 id16 id17"
       id="g11" /></defs><defs
     class="EmbeddedBulletChars"
     id="defs13"><g
       id="bullet-char-template(57356)"
       transform="scale(4.8828125e-4,-4.8828125e-4)"><path
         d="M 580,1141 1163,571 580,0 -4,571 580,1141 z"
         id="path16"
         inkscape:connector-curvature="0" /></g><g
       id="bullet-char-template(57354)"
       transform="scale(4.8828125e-4,-4.8828125e-4)"><path
         d="m 8,1128 1129,0 L 1137,0 8,0 8,1128 z"
         id="path19"
         inkscape:connector-curvature="0" /></g><g
       id="bullet-char-template(10146)"
       transform="scale(4.8828125e-4,-4.8828125e-4)"><path
         d="M 174,0 602,739 174,1481 1456,739 174,0 z m 1184,739 -1049,607 350,-607 699,0 z"
         id="path22"
         inkscape:connector-curvature="0" /></g><g
       id="bullet-char-template(10132)"
       transform="scale(4.8828125e-4,-4.8828125e-4)"><path
         d="M 2015,739 1276,0 717,0 l 543,543 -1086,0 0,393 1086,0 -543,545 557,0 741,-742 z"
         id="path25"
         inkscape:connector-curvature="0" /></g><g
       id="bullet-char-template(10007)"
       transform="scale(4.8828125e-4,-4.8828125e-4)"><path
         d="m 0,-2 c -7,16 -16,29 -25,39 l 381,530 c -94,256 -141,385 -141,387 0,25 13,38 40,38 9,0 21,-2 34,-5 21,4 42,12 65,25 l 27,-13 111,-251 280,301 64,-25 24,25 c 21,-10 41,-24 62,-43 C 886,937 835,863 770,784 769,783 710,716 594,584 L 774,223 c 0,-27 -21,-55 -63,-84 l 16,-20 C 717,90 699,76 672,76 641,76 570,178 457,381 L 164,-76 c -22,-34 -53,-51 -92,-51 -42,0 -63,17 -64,51 -7,9 -10,24 -10,44 0,9 1,19 2,30 z"
         id="path28"
         inkscape:connector-curvature="0" /></g><g
       id="bullet-char-template(10004)"
       transform="scale(4.8828125e-4,-4.8828125e-4)"><path
         d="M 285,-33 C 182,-33 111,30 74,156 52,228 41,333 41,471 c 0,78 14,145 41,201 34,71 87,106 158,106 53,0 88,-31 106,-94 l 23,-176 c 8,-64 28,-97 59,-98 l 735,706 c 11,11 33,17 66,17 42,0 63,-15 63,-46 l 0,-122 c 0,-36 -10,-64 -30,-84 L 442,47 C 390,-6 338,-33 285,-33 z"
         id="path31"
         inkscape:connector-curvature="0" /></g><g
       id="bullet-char-template(9679)"
       transform="scale(4.8828125e-4,-4.8828125e-4)"><path
         d="M 813,0 C 632,0 489,54 383,161 276,268 223,411 223,592 c 0,181 53,324 160,431 106,107 249,161 430,161 179,0 323,-54 432,-161 108,-107 162,-251 162,-431 0,-180 -54,-324 -162,-431 C 1136,54 992,0 813,0 z"
         id="path34"
         inkscape:connector-curvature="0" /></g><g
       id="bullet-char-template(8226)"
       transform="scale(4.8828125e-4,-4.8828125e-4)"><path
         d="m 346,457 c -73,0 -137,26 -191,78 -54,51 -81,114 -81,188 0,73 27,136 81,188 54,52 118,78 191,78 73,0 134,-26 185,-79 51,-51 77,-114 77,-187 0,-75 -25,-137 -76,-188 -50,-52 -112,-78 -186,-78 z"
         id="path37"
         inkscape:connector-curvature="0" /></g><g
       id="bullet-char-template(8211)"
       transform="scale(4.8828125e-4,-4.8828125e-4)"><path
         d="m -4,459 1139,0 0,147 -1139,0 0,-147 z"
         id="path40"
         inkscape:connector-curvature="0" /></g></defs><defs
     class="TextEmbeddedBitmaps"
     id="defs42" /><g
     id="g44"
     transform="translate(-1985.875,590.4303)"><g
       id="id2"
       class="Master_Slide"><g
         id="bg-id2"
         class="Background" /><g
         id="bo-id2"
         class="BackgroundObjects" /></g></g><g
     class="SlideGroup"
     id="g49"
     transform="translate(-1985.875,-647.7225)"><g
       id="g51"><g
         id="id1"
         class="Slide"
         clip-path="url(#presentation_clip_path)"><g
           class="Page"
           id="g54"><g
             class="com.sun.star.drawing.CustomShape"
             id="g56"><g
               id="id3"><path
                 d="m 9950,4800 -3150,0 0,-2900 6300,0 0,2900 -3150,0 z"
                 id="path59"
                 inkscape:connector-curvature="0"
                 style="fill:none;stroke:#000000" /><text
                 class="TextShape"
                 id="text61"><tspan
                   class="TextParagraph"
                   font-size="635px"
                   font-weight="400"
                   id="tspan63"
                   style="font-size:635px;font-weight:400;font-family:'Liberation Sans, sans-serif'"><tspan
                     class="TextPosition"
                     x="7342"
                     y="2860"
                     id="tspan65"><tspan
                       id="tspan67"
                       style="fill:#000000;stroke:none">does the</tspan><tspan
                       id="tspan69"
                       style="fill:#000000;stroke:none"> url match</tspan></tspan></tspan><tspan
                   class="TextParagraph"
                   font-size="635px"
                   font-weight="400"
                   id="tspan71"
                   style="font-size:635px;font-weight:400;font-family:'Liberation Sans, sans-serif'"><tspan
                     class="TextPosition"
                     x="8454"
                     y="3571"
                     id="tspan73"><tspan
                       id="tspan75"
                       style="fill:#000000;stroke:none">a </tspan><tspan
                       id="tspan77"
                       style="fill:#000000;stroke:none">resource</tspan></tspan></tspan><tspan
                   class="TextParagraph"
                   font-size="635px"
                   font-weight="400"
                   id="tspan79"
                   style="font-size:635px;font-weight:400;font-family:'Liberation Sans, sans-serif'"><tspan
                     class="TextPosition"
                     x="9775"
                     y="4282"
                     id="tspan81"><tspan
                       id="tspan83"
                       style="fill:#000000;stroke:none">?</tspan></tspan></tspan></text>
</g></g><g
             class="com.sun.star.drawing.CustomShape"
             id="g85"><g
               id="id4"><path
                 d="m 24450,13800 -3150,0 0,-2900 6300,0 0,2900 -3150,0 z"
                 id="path88"
                 inkscape:connector-curvature="0"
                 style="fill:none;stroke:#000000" /><text
                 class="TextShape"
                 id="text90"><tspan
                   class="TextParagraph"
                   font-size="635px"
                   font-weight="400"
                   id="tspan92"
                   style="font-size:635px;font-weight:400;font-family:'Liberation Sans, sans-serif'"><tspan
                     class="TextPosition"
                     x="22196"
                     y="11860"
                     id="tspan94"><tspan
                       id="tspan96"
                       style="fill:#000000;stroke:none">is </tspan><tspan
                       id="tspan98"
                       style="fill:#000000;stroke:none">the requested</tspan></tspan></tspan><tspan
                   class="TextParagraph"
                   font-size="635px"
                   font-weight="400"
                   id="tspan100"
                   style="font-size:635px;font-weight:400;font-family:'Liberation Sans, sans-serif'"><tspan
                     class="TextPosition"
                     x="23394"
                     y="12571"
                     id="tspan102"><tspan
                       id="tspan104"
                       style="fill:#000000;stroke:none">method</tspan></tspan></tspan><tspan
                   class="TextParagraph"
                   font-size="635px"
                   font-weight="400"
                   id="tspan106"
                   style="font-size:635px;font-weight:400;font-family:'Liberation Sans, sans-serif'"><tspan
                     class="TextPosition"
                     x="22374"
                     y="13282"
                     id="tspan108"><tspan
                       id="tspan110"
                       style="fill:#000000;stroke:none">implemented ?</tspan></tspan></tspan></text>
</g></g><g
             class="com.sun.star.drawing.CustomShape"
             id="g112"><g
               id="id5"><path
                 d="m 14750,13800 -3150,0 0,-2900 6300,0 0,2900 -3150,0 z"
                 id="path115"
                 inkscape:connector-curvature="0"
                 style="fill:none;stroke:#000000" /><text
                 class="TextShape"
                 id="text117"><tspan
                   class="TextParagraph"
                   font-size="635px"
                   font-weight="400"
                   id="tspan119"
                   style="font-size:635px;font-weight:400;font-family:'Liberation Sans, sans-serif'"><tspan
                     class="TextPosition"
                     x="12092"
                     y="11860"
                     id="tspan121"><tspan
                       id="tspan123"
                       style="fill:#000000;stroke:none">does the identified </tspan></tspan><tspan
                     class="TextPosition"
                     x="13518"
                     y="12571"
                     id="tspan125"><tspan
                       id="tspan127"
                       style="fill:#000000;stroke:none">resource</tspan></tspan><tspan
                     class="TextPosition"
                     x="13675"
                     y="13282"
                     id="tspan129"><tspan
                       id="tspan131"
                       style="fill:#000000;stroke:none">exists ?</tspan></tspan></tspan></text>
</g></g><g
             class="com.sun.star.drawing.CustomShape"
             id="g133"><g
               id="id6"><path
                 d="m 19050,8200 -3150,0 0,-2900 6300,0 0,2900 -3150,0 z"
                 id="path136"
                 inkscape:connector-curvature="0"
                 style="fill:none;stroke:#000000" /><text
                 class="TextShape"
                 id="text138"><tspan
                   class="TextParagraph"
                   font-size="635px"
                   font-weight="400"
                   id="tspan140"
                   style="font-size:635px;font-weight:400;font-family:'Liberation Sans, sans-serif'"><tspan
                     class="TextPosition"
                     x="16779"
                     y="6260"
                     id="tspan142"><tspan
                       id="tspan144"
                       style="fill:#000000;stroke:none">is it an identified</tspan></tspan><tspan
                     class="TextPosition"
                     x="17818"
                     y="6971"
                     id="tspan146"><tspan
                       id="tspan148"
                       style="fill:#000000;stroke:none">resource</tspan></tspan><tspan
                     class="TextPosition"
                     x="18875"
                     y="7682"
                     id="tspan150"><tspan
                       id="tspan152"
                       style="fill:#000000;stroke:none">?</tspan></tspan></tspan></text>
</g></g><g
             class="com.sun.star.drawing.CustomShape"
             id="g154"><g
               id="id7"><path
                 d="m 3295,10900 c -648,0 -1295,647 -1295,1295 l 0,310 c 0,648 647,1296 1295,1296 l 3610,0 c 648,0 1296,-648 1296,-1296 l 0,-310 c 0,-648 -648,-1295 -1296,-1295 l -3610,0 z"
                 id="path157"
                 inkscape:connector-curvature="0"
                 style="fill:none;stroke:#000000" /><path
                 d="m 2000,10900 0,0 z"
                 id="path159"
                 inkscape:connector-curvature="0"
                 style="fill:none;stroke:#000000" /><path
                 d="m 8201,13801 0,0 z"
                 id="path161"
                 inkscape:connector-curvature="0"
                 style="fill:none;stroke:#000000" /><text
                 class="TextShape"
                 id="text163"><tspan
                   class="TextParagraph"
                   font-size="635px"
                   font-weight="400"
                   id="tspan165"
                   style="font-size:635px;font-weight:400;font-family:'Liberation Sans, sans-serif'"><tspan
                     class="TextPosition"
                     x="2704"
                     y="11860"
                     id="tspan167"><tspan
                       id="tspan169"
                       style="fill:#000000;stroke:none">leave it to default</tspan></tspan><tspan
                     class="TextPosition"
                     x="3375"
                     y="12571"
                     id="tspan171"><tspan
                       id="tspan173"
                       style="fill:#000000;stroke:none">play request</tspan></tspan><tspan
                     class="TextPosition"
                     x="3906"
                     y="13282"
                     id="tspan175"><tspan
                       id="tspan177"
                       style="fill:#000000;stroke:none">handling</tspan></tspan></tspan></text>
</g></g><g
             class="com.sun.star.drawing.CustomShape"
             id="g179"><g
               id="id8"><path
                 d="m 12945,16250 c -648,0 -1295,647 -1295,1295 l 0,310 c 0,648 647,1296 1295,1296 l 3610,0 c 648,0 1296,-648 1296,-1296 l 0,-310 c 0,-648 -648,-1295 -1296,-1295 l -3610,0 z"
                 id="path182"
                 inkscape:connector-curvature="0"
                 style="fill:none;stroke:#000000" /><path
                 d="m 11650,16250 0,0 z"
                 id="path184"
                 inkscape:connector-curvature="0"
                 style="fill:none;stroke:#000000" /><path
                 d="m 17851,19151 0,0 z"
                 id="path186"
                 inkscape:connector-curvature="0"
                 style="fill:none;stroke:#000000" /><text
                 class="TextShape"
                 id="text188"><tspan
                   class="TextParagraph"
                   font-size="635px"
                   font-weight="400"
                   id="tspan190"
                   style="font-size:635px;font-weight:400;font-family:'Liberation Sans, sans-serif'"><tspan
                     class="TextPosition"
                     x="13306"
                     y="17565"
                     id="tspan192"><tspan
                       id="tspan194"
                       style="fill:#000000;stroke:none">return 405</tspan></tspan><tspan
                     class="TextPosition"
                     x="12004"
                     y="18276"
                     id="tspan196"><tspan
                       id="tspan198"
                       style="fill:#000000;stroke:none">method not allowed</tspan></tspan></tspan></text>
</g></g><g
             class="com.sun.star.drawing.CustomShape"
             id="g200"><g
               id="id9"><path
                 d="m 22645,16250 c -648,0 -1295,647 -1295,1295 l 0,310 c 0,648 647,1296 1295,1296 l 3610,0 c 648,0 1296,-648 1296,-1296 l 0,-310 c 0,-648 -648,-1295 -1296,-1295 l -3610,0 z"
                 id="path203"
                 inkscape:connector-curvature="0"
                 style="fill:none;stroke:#000000" /><path
                 d="m 21350,16250 0,0 z"
                 id="path205"
                 inkscape:connector-curvature="0"
                 style="fill:none;stroke:#000000" /><path
                 d="m 27551,19151 0,0 z"
                 id="path207"
                 inkscape:connector-curvature="0"
                 style="fill:none;stroke:#000000" /><text
                 class="TextShape"
                 id="text209"><tspan
                   class="TextParagraph"
                   font-size="635px"
                   font-weight="400"
                   id="tspan211"
                   style="font-size:635px;font-weight:400;font-family:'Liberation Sans, sans-serif'"><tspan
                     class="TextPosition"
                     x="23447"
                     y="17210"
                     id="tspan213"><tspan
                       id="tspan215"
                       style="fill:#000000;stroke:none">call the</tspan></tspan></tspan><tspan
                   class="TextParagraph"
                   font-size="635px"
                   font-weight="400"
                   id="tspan217"
                   style="font-size:635px;font-weight:400;font-family:'Liberation Sans, sans-serif'"><tspan
                     class="TextPosition"
                     x="22446"
                     y="17921"
                     id="tspan219"><tspan
                       id="tspan221"
                       style="fill:#000000;stroke:none">corresponding</tspan></tspan></tspan><tspan
                   class="TextParagraph"
                   font-size="635px"
                   font-weight="400"
                   id="tspan223"
                   style="font-size:635px;font-weight:400;font-family:'Liberation Sans, sans-serif'"><tspan
                     class="TextPosition"
                     x="22003"
                     y="18632"
                     id="tspan225"><tspan
                       id="tspan227"
                       style="fill:#000000;stroke:none">controller method</tspan></tspan></tspan></text>
</g></g><g
             class="com.sun.star.drawing.ConnectorShape"
             id="g229"><g
               id="id10"><path
                 d="m 9950,4800 c 0,5062 -4481,2237 -4829,5656"
                 id="path232"
                 inkscape:connector-curvature="0"
                 style="fill:none;stroke:#800000;stroke-width:50" /><path
                 d="m 5100,10900 173,-442 -300,-15 127,457 z"
                 id="path234"
                 inkscape:connector-curvature="0"
                 style="fill:#800000;stroke:none" /><text
                 class="TextShape"
                 id="text236"><tspan
                   class="TextParagraph"
                   font-size="635px"
                   font-weight="400"
                   id="tspan238"
                   style="font-size:635px;font-weight:400;font-family:'DejaVu Sans, sans-serif'"><tspan
                     class="TextPosition"
                     x="7129"
                     y="8070"
                     id="tspan240"><tspan
                       id="tspan242"
                       style="fill:#800000;stroke:none">no</tspan></tspan></tspan></text>
</g></g><g
             class="com.sun.star.drawing.ConnectorShape"
             id="g244"><g
               id="id11"><path
                 d="m 9950,4800 c 0,1300 1837,1900 5513,1947"
                 id="path247"
                 inkscape:connector-curvature="0"
                 style="fill:none;stroke:#008000;stroke-width:50" /><path
                 d="m 15900,6750 -449,-153 -2,300 451,-147 z"
                 id="path249"
                 inkscape:connector-curvature="0"
                 style="fill:#008000;stroke:none" /><text
                 class="TextShape"
                 id="text251"><tspan
                   class="TextParagraph"
                   font-size="635px"
                   font-weight="400"
                   id="tspan253"
                   style="font-size:635px;font-weight:400;font-family:'Liberation Sans, sans-serif'"><tspan
                     class="TextPosition"
                     x="12432"
                     y="5996"
                     id="tspan255"><tspan
                       id="tspan257"
                       style="fill:#008000;stroke:none">yes</tspan></tspan></tspan></text>
</g></g><g
             class="com.sun.star.drawing.ConnectorShape"
             id="g259"><g
               id="id12"><path
                 d="m 19050,8200 c 0,2025 -3664,863 -4228,2290"
                 id="path262"
                 inkscape:connector-curvature="0"
                 style="fill:none;stroke:#008000;stroke-width:50" /><path
                 d="m 14750,10900 230,-415 -295,-55 65,470 z"
                 id="path264"
                 inkscape:connector-curvature="0"
                 style="fill:#008000;stroke:none" /></g></g><g
             class="com.sun.star.drawing.ConnectorShape"
             id="g266"><g
               id="id13"><path
                 d="m 19050,8200 c 0,2025 4624,858 5314,2300"
                 id="path269"
                 inkscape:connector-curvature="0"
                 style="fill:none;stroke:#800000;stroke-width:50" /><path
                 d="m 24450,10900 47,-472 -293,66 246,406 z"
                 id="path271"
                 inkscape:connector-curvature="0"
                 style="fill:#800000;stroke:none" /></g></g><g
             class="com.sun.star.drawing.ConnectorShape"
             id="g273"><g
               id="id14"><path
                 d="m 17900,12350 2970,0"
                 id="path276"
                 inkscape:connector-curvature="0"
                 style="fill:none;stroke:#008000;stroke-width:50" /><path
                 d="m 21300,12350 -450,-150 0,300 450,-150 z"
                 id="path278"
                 inkscape:connector-curvature="0"
                 style="fill:#008000;stroke:none" /></g></g><g
             class="com.sun.star.drawing.ConnectorShape"
             id="g280"><g
               id="id15"><path
                 d="m 24450,13800 c 0,1837 -8397,769 -9566,2109"
                 id="path283"
                 inkscape:connector-curvature="0"
                 style="fill:none;stroke:#800000;stroke-width:50" /><path
                 d="m 14750,16250 312,-358 -277,-115 -35,473 z"
                 id="path285"
                 inkscape:connector-curvature="0"
                 style="fill:#800000;stroke:none" /></g></g><g
             class="com.sun.star.drawing.ConnectorShape"
             id="g287"><g
               id="id16"><path
                 d="m 24450,13800 0,2020"
                 id="path290"
                 inkscape:connector-curvature="0"
                 style="fill:none;stroke:#008000;stroke-width:50" /><path
                 d="m 24450,16250 150,-450 -300,0 150,450 z"
                 id="path292"
                 inkscape:connector-curvature="0"
                 style="fill:#008000;stroke:none" /></g></g><g
             class="com.sun.star.drawing.ConnectorShape"
             id="g294"><g
               id="id17"><path
                 d="m 11600,12350 -2970,0"
                 id="path297"
                 inkscape:connector-curvature="0"
                 style="fill:none;stroke:#800000;stroke-width:50" /><path
                 d="m 8200,12350 450,150 0,-300 -450,150 z"
                 id="path299"
                 inkscape:connector-curvature="0"
                 style="fill:#800000;stroke:none" /></g></g></g></g></g></g></svg>